<svg width="15" height="16" viewBox="0 0 15 16" fill="none" xmlns="http://www.w3.org/2000/svg">
<path d="M7.5 0C5.77672 0.00184311 4.1246 0.623288 2.90606 1.72801C1.68751 2.83274 1.00204 4.33054 1.00001 5.89286C0.997943 7.16958 1.45795 8.41167 2.30946 9.42857C2.30946 9.42857 2.48673 9.64018 2.51569 9.67071L7.5 15L12.4867 9.66804C12.5127 9.63964 12.6905 9.42857 12.6905 9.42857L12.6911 9.42696C13.5422 8.41051 14.002 7.169 14 5.89286C13.998 4.33054 13.3125 2.83274 12.0939 1.72801C10.8754 0.623288 9.22328 0.00184311 7.5 0ZM8.09091 8.57143H6.90909V7.5H8.09091V8.57143ZM8.09091 6.42857H6.90909V5.35714H8.09091V6.42857ZM10.4545 8.57143H9.27273V4.28571H5.72727V8.57143H4.54546V4.28571C4.54577 4.00164 4.67038 3.72928 4.89195 3.52841C5.11352 3.32754 5.41393 3.21457 5.72727 3.21429H9.27273C9.58607 3.21457 9.88649 3.32754 10.1081 3.52841C10.3296 3.72928 10.4542 4.00164 10.4545 4.28571V8.57143Z" fill="#DDDDDD"/>
</svg>
