<svg width="15" height="16" viewBox="0 0 15 16" fill="none" xmlns="http://www.w3.org/2000/svg">
<path d="M11.5385 5.44647V3.66772C11.7852 3.55766 11.9942 3.38308 12.1411 3.16425C12.288 2.94543 12.3668 2.69133 12.3684 2.43147V2.3896C12.3674 2.02633 12.2158 1.67821 11.9466 1.42129C11.6775 1.16436 11.3127 1.0195 10.932 1.01834H10.8881C10.5075 1.0195 10.1428 1.16427 9.8737 1.42107C9.60458 1.67786 9.45285 2.02581 9.45164 2.38897V2.43085C9.45284 2.6892 9.53044 2.94198 9.67552 3.16013C9.82059 3.37827 10.0272 3.55291 10.2717 3.66397L10.2802 3.66772V5.45022C9.56748 5.55413 8.89639 5.83667 8.33548 6.26897L8.34334 6.26272L3.21584 2.45335C3.31347 2.10438 3.28121 1.73391 3.12458 1.4051C2.96795 1.07629 2.69664 0.809495 2.35691 0.650205C2.01718 0.490916 1.63007 0.448995 1.26157 0.531589C0.893067 0.614182 0.565999 0.816177 0.336127 1.10313C0.106255 1.39009 -0.012188 1.74424 0.000992444 2.1052C0.0141729 2.46617 0.158161 2.81159 0.408406 3.08259C0.658652 3.35358 0.99966 3.53337 1.37329 3.59129C1.74692 3.64921 2.13004 3.58169 2.45733 3.40022L2.44947 3.40397L7.49116 7.14835C7.04547 7.78594 6.80878 8.5357 6.81125 9.3021C6.81017 10.1098 7.07277 10.8977 7.56256 11.5565L7.55404 11.544L6.01999 13.0084C5.89718 12.9705 5.76911 12.9505 5.64007 12.949H5.63876C5.37539 12.949 5.11793 13.0235 4.89894 13.1631C4.67995 13.3027 4.50926 13.5012 4.40847 13.7334C4.30768 13.9655 4.28131 14.221 4.3327 14.4675C4.38408 14.714 4.51091 14.9404 4.69714 15.1181C4.88338 15.2958 5.12066 15.4168 5.37897 15.4658C5.63729 15.5148 5.90504 15.4897 6.14837 15.3935C6.3917 15.2973 6.59967 15.1345 6.746 14.9255C6.89232 14.7166 6.97042 14.4709 6.97042 14.2196C6.96864 14.0932 6.94655 13.9678 6.90492 13.8477L6.90819 13.8565L8.42588 12.4084C8.92055 12.7685 9.49479 13.0163 10.1049 13.1328C10.715 13.2494 11.345 13.2316 11.9468 13.0809C12.5487 12.9302 13.1066 12.6504 13.5781 12.263C14.0496 11.8756 14.4223 11.3907 14.6679 10.8452C14.9134 10.2997 15.0254 9.70789 14.9952 9.11487C14.965 8.52186 14.7934 7.94322 14.4936 7.42299C14.1938 6.90275 13.7735 6.4546 13.2649 6.11265C12.7562 5.77069 12.1725 5.54392 11.5582 5.4496L11.5346 5.44647H11.5385ZM10.9071 11.3077C10.492 11.3066 10.0866 11.1882 9.74208 10.9674C9.39752 10.7465 9.12928 10.4332 8.97122 10.067C8.81316 9.70084 8.77238 9.29816 8.85402 8.90986C8.93566 8.52156 9.13606 8.16505 9.42992 7.88535C9.72377 7.60566 10.0979 7.41533 10.5051 7.3384C10.9122 7.26147 11.3341 7.30139 11.7175 7.45312C12.1009 7.60484 12.4286 7.86157 12.6592 8.19088C12.8897 8.5202 13.0129 8.90731 13.013 9.30335V9.3046C13.0131 9.56784 12.9588 9.82852 12.8533 10.0717C12.7477 10.315 12.593 10.536 12.3979 10.7221C12.2028 10.9082 11.9712 11.0559 11.7163 11.1566C11.4614 11.2573 11.1882 11.3091 10.9123 11.309L10.9071 11.3077Z" fill="white" fill-opacity="0.83"/>
</svg>
