<svg width="15" height="12" viewBox="0 0 15 12" fill="none" xmlns="http://www.w3.org/2000/svg">
<path d="M5.625 9.2C5.625 9.81364 5.54719 10.2736 5.39062 10.58H4.6875C4.56318 10.58 4.44395 10.6285 4.35604 10.7147C4.26814 10.801 4.21875 10.918 4.21875 11.04C4.21875 11.162 4.26814 11.279 4.35604 11.3653C4.44395 11.4515 4.56318 11.5 4.6875 11.5H10.3125C10.4368 11.5 10.556 11.4515 10.644 11.3653C10.7319 11.279 10.7812 11.162 10.7812 11.04C10.7812 10.918 10.7319 10.801 10.644 10.7147C10.556 10.6285 10.4368 10.58 10.3125 10.58H9.60938C9.45281 10.2736 9.375 9.81364 9.375 9.2H13.125C15 9.2 15 7.36 15 7.36V1.84C15 0 13.125 0 13.125 0H1.875C0 0 0 1.84 0 1.84V7.36C0 9.2 1.875 9.2 1.875 9.2H5.625Z" fill="black"/>
</svg>
