<svg width="19" height="12" viewBox="0 0 19 12" fill="none" xmlns="http://www.w3.org/2000/svg">
<path d="M9.5 0C10.2349 0 10.9396 0.305172 11.4593 0.848381C11.9789 1.39159 12.2708 2.12834 12.2708 2.89655C12.2708 3.66477 11.9789 4.40151 11.4593 4.94472C10.9396 5.48793 10.2349 5.7931 9.5 5.7931C8.76513 5.7931 8.06036 5.48793 7.54073 4.94472C7.02109 4.40151 6.72917 3.66477 6.72917 2.89655C6.72917 2.12834 7.02109 1.39159 7.54073 0.848381C8.06036 0.305172 8.76513 0 9.5 0ZM3.95833 2.06897C4.40167 2.06897 4.81333 2.1931 5.16958 2.41655C5.05083 3.6 5.38333 4.77517 6.06417 5.69379C5.66833 6.48828 4.87667 7.03448 3.95833 7.03448C3.32844 7.03448 2.72435 6.77291 2.27895 6.3073C1.83356 5.84169 1.58333 5.21019 1.58333 4.55172C1.58333 3.89326 1.83356 3.26176 2.27895 2.79615C2.72435 2.33054 3.32844 2.06897 3.95833 2.06897ZM15.0417 2.06897C15.6716 2.06897 16.2756 2.33054 16.721 2.79615C17.1664 3.26176 17.4167 3.89326 17.4167 4.55172C17.4167 5.21019 17.1664 5.84169 16.721 6.3073C16.2756 6.77291 15.6716 7.03448 15.0417 7.03448C14.1233 7.03448 13.3317 6.48828 12.9358 5.69379C13.6261 4.76228 13.9464 3.58858 13.8304 2.41655C14.1867 2.1931 14.5983 2.06897 15.0417 2.06897ZM4.35417 10.5517C4.35417 8.83862 6.65792 7.44828 9.5 7.44828C12.3421 7.44828 14.6458 8.83862 14.6458 10.5517V12H4.35417V10.5517ZM0 12V10.7586C0 9.60828 1.49625 8.64 3.52292 8.35862C3.05583 8.92138 2.77083 9.69931 2.77083 10.5517V12H0ZM19 12H16.2292V10.5517C16.2292 9.69931 15.9442 8.92138 15.4771 8.35862C17.5037 8.64 19 9.60828 19 10.7586V12Z" fill="black"/>
</svg>
