<svg width="15" height="13" viewBox="0 0 15 13" fill="none" xmlns="http://www.w3.org/2000/svg">
<path d="M1.7094 12.4902C1.23932 12.4902 0.836753 12.3222 0.501711 11.9862C0.166668 11.6502 -0.000568349 11.2468 1.45111e-06 10.7759V2.20452C1.45111e-06 1.73309 0.167523 1.32938 0.502566 0.993379C0.837608 0.657379 1.23989 0.489664 1.7094 0.490236H10.2564C10.5413 0.490236 10.8085 0.554521 11.0581 0.683093C11.3077 0.811664 11.5105 0.990236 11.6667 1.21881L14.6795 5.50452C14.8932 5.80452 15 6.13309 15 6.49024C15 6.84738 14.8932 7.17595 14.6795 7.47595L11.6667 11.7617C11.51 11.9902 11.3071 12.1688 11.0581 12.2974C10.8091 12.4259 10.5419 12.4902 10.2564 12.4902H1.7094ZM5.36325 7.56166L6.04701 9.06166C6.11823 9.23309 6.24644 9.31881 6.43162 9.31881C6.61681 9.31881 6.74502 9.23309 6.81624 9.06166L7.5 7.56166L8.99573 6.87595C9.16667 6.80452 9.25214 6.67595 9.25214 6.49024C9.25214 6.30452 9.16667 6.17595 8.99573 6.10452L7.5 5.41881L6.81624 3.91881C6.74502 3.74738 6.61681 3.66166 6.43162 3.66166C6.24644 3.66166 6.11823 3.74738 6.04701 3.91881L5.36325 5.41881L3.86752 6.10452C3.69658 6.17595 3.61111 6.30452 3.61111 6.49024C3.61111 6.67595 3.69658 6.80452 3.86752 6.87595L5.36325 7.56166Z" fill="black"/>
</svg>
