<svg width="15" height="16" viewBox="0 0 15 16" fill="none" xmlns="http://www.w3.org/2000/svg">
<path d="M10 3H5.83333C5.39131 3 4.96738 3.15804 4.65482 3.43934C4.34226 3.72064 4.16667 4.10218 4.16667 4.5V11.25H1.66667C1.22464 11.25 0.800716 11.092 0.488155 10.8107C0.175595 10.5294 0 10.1478 0 9.75V1.5C0 1.10218 0.175595 0.720644 0.488155 0.43934C0.800716 0.158035 1.22464 0 1.66667 0L8.33333 0C8.77536 0 9.19928 0.158035 9.51184 0.43934C9.8244 0.720644 10 1.10218 10 1.5V3ZM6.66667 3.75H12.5L15 6V13.5C15 13.8978 14.8244 14.2794 14.5118 14.5607C14.1993 14.842 13.7754 15 13.3333 15H6.66667C6.22464 15 5.80072 14.842 5.48816 14.5607C5.17559 14.2794 5 13.8978 5 13.5V5.25C5 4.85218 5.17559 4.47064 5.48816 4.18934C5.80072 3.90804 6.22464 3.75 6.66667 3.75Z" fill="black"/>
</svg>
