<svg width="17" height="18" viewBox="0 0 17 18" fill="none" xmlns="http://www.w3.org/2000/svg">
<path d="M8.31812 10.9L10.2181 12.8C10.4181 12.9833 10.6558 13.075 10.9311 13.075C11.2065 13.075 11.4355 12.9833 11.6181 12.8C11.8181 12.6 11.9181 12.3623 11.9181 12.087C11.9181 11.8117 11.8181 11.5827 11.6181 11.4L9.71812 9.5L11.6181 7.6C11.8181 7.4 11.9181 7.16234 11.9181 6.887C11.9181 6.61167 11.8181 6.38267 11.6181 6.2C11.4348 6 11.2055 5.9 10.9301 5.9C10.6548 5.9 10.4175 6 10.2181 6.2L8.31812 8.1L6.41812 6.2C6.23479 6 6.00545 5.9 5.73012 5.9C5.45478 5.9 5.21745 6 5.01812 6.2C4.83478 6.38334 4.74312 6.61267 4.74312 6.888C4.74312 7.16334 4.83478 7.40067 5.01812 7.6L6.91812 9.5L5.01812 11.4C4.83478 11.5833 4.74312 11.8127 4.74312 12.088C4.74312 12.3633 4.83478 12.6007 5.01812 12.8C5.21812 12.9833 5.45579 13.075 5.73112 13.075C6.00645 13.075 6.23545 12.9833 6.41812 12.8L8.31812 10.9ZM3.31812 18C2.76812 18 2.29712 17.804 1.90512 17.412C1.51312 17.02 1.31745 16.5493 1.31812 16V3C1.03479 3 0.797119 2.904 0.605119 2.712C0.413119 2.52 0.317452 2.28267 0.318119 2C0.318119 1.71667 0.414119 1.479 0.606119 1.287C0.798119 1.095 1.03545 0.999337 1.31812 1H5.31812C5.31812 0.71667 5.41412 0.479003 5.60612 0.287003C5.79812 0.0950034 6.03545 -0.000663206 6.31812 3.46021e-06H10.3181C10.6015 3.46021e-06 10.8391 0.0960036 11.0311 0.288004C11.2231 0.480004 11.3188 0.717337 11.3181 1H15.3181C15.6015 1 15.8391 1.096 16.0311 1.288C16.2231 1.48 16.3188 1.71734 16.3181 2C16.3181 2.28334 16.2221 2.521 16.0301 2.713C15.8381 2.905 15.6008 3.00067 15.3181 3V16C15.3181 16.55 15.1221 17.021 14.7301 17.413C14.3381 17.805 13.8675 18.0007 13.3181 18H3.31812Z" fill="#D80202"/>
</svg>
