<svg width="15" height="16" viewBox="0 0 15 16" fill="none" xmlns="http://www.w3.org/2000/svg">
<path d="M0.5 4.24023V2.74023H2.05556V1.99023C2.05556 1.59241 2.21944 1.21088 2.51117 0.929574C2.80289 0.64827 3.19855 0.490234 3.61111 0.490234H8.27778V5.74023L10.2222 4.61523L12.1667 5.74023V0.490234H12.9444C13.7611 0.490234 14.5 1.20273 14.5 1.99023V13.9902C14.5 14.7777 13.7611 15.4902 12.9444 15.4902H3.61111C2.79444 15.4902 2.05556 14.7777 2.05556 13.9902V13.2402H0.5V11.7402H2.05556V8.74023H0.5V7.24023H2.05556V4.24023H0.5ZM3.61111 7.24023H2.05556V8.74023H3.61111V7.24023ZM3.61111 4.24023V2.74023H2.05556V4.24023H3.61111ZM3.61111 13.2402V11.7402H2.05556V13.2402H3.61111Z" fill="white" fill-opacity="0.83"/>
</svg>
