<svg width="15" height="16" viewBox="0 0 15 16" fill="none" xmlns="http://www.w3.org/2000/svg">
<path d="M4.375 10.2402L7.1875 5.74023L9.375 9.11523L10.9375 6.86523L13.125 10.2402M13.75 1.99023H8.75L7.5 0.490234H3.75C3.41848 0.490234 3.10054 0.64827 2.86612 0.929574C2.6317 1.21088 2.5 1.59241 2.5 1.99023V10.9902C2.5 11.3881 2.6317 11.7696 2.86612 12.0509C3.10054 12.3322 3.41848 12.4902 3.75 12.4902H13.75C14.0815 12.4902 14.3995 12.3322 14.6339 12.0509C14.8683 11.7696 15 11.3881 15 10.9902V3.49023C15 3.09241 14.8683 2.71088 14.6339 2.42957C14.3995 2.14827 14.0815 1.99023 13.75 1.99023ZM1.25 3.49023H0V13.9902C0 14.3881 0.131696 14.7696 0.366117 15.0509C0.600537 15.3322 0.918479 15.4902 1.25 15.4902H12.5V13.9902H1.25V3.49023Z" fill="white" fill-opacity="0.83"/>
</svg>
