<svg width="15" height="15" viewBox="0 0 15 15" fill="none" xmlns="http://www.w3.org/2000/svg">
<path d="M5.625 10.4167L10.875 6.66667L5.625 2.91667V10.4167ZM4.5 15V13.3333H1.5C1.0875 13.3333 0.734251 13.17 0.440251 12.8433C0.146251 12.5167 -0.000498727 12.1244 1.27334e-06 11.6667V1.66667C1.27334e-06 1.20833 0.147001 0.815835 0.441001 0.489168C0.735001 0.162501 1.088 -0.000554141 1.5 1.41483e-06H13.5C13.9125 1.41483e-06 14.2657 0.163335 14.5597 0.490001C14.8537 0.816668 15.0005 1.20889 15 1.66667V11.6667C15 12.125 14.853 12.5175 14.559 12.8442C14.265 13.1708 13.912 13.3339 13.5 13.3333H10.5V15H4.5Z" fill="white" fill-opacity="0.83"/>
</svg>
