<svg width="15" height="16" viewBox="0 0 15 16" fill="none" xmlns="http://www.w3.org/2000/svg">
<path d="M9.31034 0.490234H1.03448C0.760121 0.490234 0.496996 0.603117 0.302993 0.804048C0.10899 1.00498 0 1.2775 0 1.56166V14.4188C0 14.703 0.10899 14.9755 0.302993 15.1764C0.496996 15.3774 0.760121 15.4902 1.03448 15.4902H9.31034C9.58471 15.4902 9.84783 15.3774 10.0418 15.1764C10.2358 14.9755 10.3448 14.703 10.3448 14.4188V11.2045H5.49828C5.36109 11.2045 5.22953 11.1481 5.13253 11.0476C5.03553 10.9471 4.98103 10.8109 4.98103 10.6688C4.98103 10.5267 5.03553 10.3905 5.13253 10.29C5.22953 10.1895 5.36109 10.1331 5.49828 10.1331H10.3448V1.56166C10.3448 1.2775 10.2358 1.00498 10.0418 0.804048C9.84783 0.603117 9.58471 0.490234 9.31034 0.490234Z" fill="white" fill-opacity="0.83"/>
<path d="M11.9792 7.60294C11.8803 7.51517 11.753 7.46931 11.6228 7.47452C11.4926 7.47973 11.3691 7.53562 11.277 7.63103C11.1849 7.72644 11.1309 7.85433 11.1259 7.98916C11.1209 8.12398 11.1652 8.25581 11.2499 8.35829L12.9982 10.1315H10.3447V11.2029H12.9982L11.2499 13.0565C11.1958 13.1045 11.1518 13.1636 11.1207 13.2301C11.0897 13.2966 11.0722 13.369 11.0695 13.4427C11.0667 13.5165 11.0787 13.5901 11.1047 13.6588C11.1307 13.7276 11.1702 13.79 11.2206 13.8422C11.271 13.8944 11.3313 13.9353 11.3977 13.9622C11.464 13.9891 11.5351 14.0016 11.6063 13.9987C11.6775 13.9959 11.7474 13.9778 11.8116 13.9456C11.8758 13.9135 11.9328 13.8679 11.9792 13.8119L14.9999 10.7047L11.9792 7.60294Z" fill="white" fill-opacity="0.83"/>
</svg>
