<svg width="15" height="16" viewBox="0 0 15 16" fill="none" xmlns="http://www.w3.org/2000/svg">
<path d="M5.625 11.375L10.875 8L5.625 4.625V11.375ZM7.5 15.5C6.4625 15.5 5.4875 15.303 4.575 14.909C3.6625 14.515 2.86875 13.9807 2.19375 13.3062C1.51875 12.6312 0.9845 11.8375 0.591 10.925C0.1975 10.0125 0.0005 9.0375 0 8C0 6.9625 0.197 5.9875 0.591 5.075C0.985 4.1625 1.51925 3.36875 2.19375 2.69375C2.86875 2.01875 3.6625 1.4845 4.575 1.091C5.4875 0.6975 6.4625 0.5005 7.5 0.5C8.5375 0.5 9.5125 0.697 10.425 1.091C11.3375 1.485 12.1312 2.01925 12.8062 2.69375C13.4812 3.36875 14.0157 4.1625 14.4097 5.075C14.8037 5.9875 15.0005 6.9625 15 8C15 9.0375 14.803 10.0125 14.409 10.925C14.015 11.8375 13.4807 12.6312 12.8062 13.3062C12.1312 13.9812 11.3375 14.5157 10.425 14.9097C9.5125 15.3037 8.5375 15.5005 7.5 15.5Z" fill="white"/>
</svg>
