<svg width="13" height="16" viewBox="0 0 13 16" fill="none" xmlns="http://www.w3.org/2000/svg">
<path d="M8.55263 10.888L10.5095 12.0402L9.99632 12.8721L7.52632 11.3993V7.99023H8.55263V10.888ZM13 10.7175C13 13.3561 10.8584 15.4902 8.21053 15.4902C6.90368 15.4902 5.72684 14.9721 4.86474 14.1266H1.36842C0.608947 14.1266 0 13.5198 0 12.763V1.85387C0 1.49221 0.144172 1.14537 0.400801 0.889634C0.65743 0.633903 1.00549 0.490234 1.36842 0.490234H2.05263V5.26296L3.76316 4.24023L5.47368 5.26296V0.490234H9.57895C9.94188 0.490234 10.2899 0.633903 10.5466 0.889634C10.8032 1.14537 10.9474 1.49221 10.9474 1.85387V6.80387C12.1858 7.66978 13 9.09478 13 10.7175ZM11.6316 10.7175C11.6316 8.83569 10.0989 7.30842 8.21053 7.30842C6.32211 7.30842 4.78947 8.83569 4.78947 10.7175C4.78947 12.5993 6.32211 14.1266 8.21053 14.1266C10.0989 14.1266 11.6316 12.5993 11.6316 10.7175Z" fill="white" fill-opacity="0.83"/>
</svg>
