<svg width="21" height="20" viewBox="0 0 21 20" fill="none" xmlns="http://www.w3.org/2000/svg">
<path d="M10.4954 16C10.8454 16 11.1414 15.879 11.3834 15.637C11.6254 15.395 11.7461 15.0993 11.7454 14.75C11.7454 14.4 11.6247 14.104 11.3834 13.862C11.1421 13.62 10.8461 13.4993 10.4954 13.5C10.1454 13.5 9.84974 13.621 9.60841 13.863C9.36708 14.105 9.24608 14.4007 9.24541 14.75C9.24541 15.1 9.36641 15.396 9.60841 15.638C9.85041 15.88 10.1461 16.0007 10.4954 16ZM9.59541 12.15H11.4454C11.4454 11.6 11.5081 11.1667 11.6334 10.85C11.7587 10.5333 12.1127 10.1 12.6954 9.55C13.1287 9.11667 13.4704 8.704 13.7204 8.312C13.9704 7.92 14.0954 7.44933 14.0954 6.9C14.0954 5.96667 13.7537 5.25 13.0704 4.75C12.3871 4.25 11.5787 4 10.6454 4C9.69541 4 8.92441 4.25 8.33241 4.75C7.74041 5.25 7.32808 5.85 7.09541 6.55L8.74541 7.2C8.82874 6.9 9.01641 6.575 9.30841 6.225C9.60041 5.875 10.0461 5.7 10.6454 5.7C11.1787 5.7 11.5787 5.846 11.8454 6.138C12.1121 6.43 12.2454 6.75067 12.2454 7.1C12.2454 7.43333 12.1454 7.746 11.9454 8.038C11.7454 8.33 11.4954 8.60067 11.1954 8.85C10.4621 9.5 10.0121 9.99167 9.84541 10.325C9.67874 10.6583 9.59541 11.2667 9.59541 12.15ZM10.5454 20C9.16208 20 7.86208 19.7373 6.64541 19.212C5.42874 18.6867 4.37041 17.9743 3.47041 17.075C2.57041 16.175 1.85808 15.1167 1.33341 13.9C0.808744 12.6833 0.546077 11.3833 0.54541 10C0.54541 8.61667 0.808077 7.31667 1.33341 6.1C1.85874 4.88333 2.57108 3.825 3.47041 2.925C4.37041 2.025 5.42874 1.31267 6.64541 0.788C7.86208 0.263333 9.16208 0.000666667 10.5454 0C11.9287 0 13.2287 0.262667 14.4454 0.788C15.6621 1.31333 16.7204 2.02567 17.6204 2.925C18.5204 3.825 19.2331 4.88333 19.7584 6.1C20.2837 7.31667 20.5461 8.61667 20.5454 10C20.5454 11.3833 20.2827 12.6833 19.7574 13.9C19.2321 15.1167 18.5197 16.175 17.6204 17.075C16.7204 17.975 15.6621 18.6877 14.4454 19.213C13.2287 19.7383 11.9287 20.0007 10.5454 20Z" fill="black"/>
</svg>
