<svg width="15" height="16" viewBox="0 0 15 16" fill="none" xmlns="http://www.w3.org/2000/svg">
<path d="M7.5 13.2402L6.45833 11.1777L4.16667 10.2402L6.45833 9.30273L7.5 7.24023L8.54167 9.30273L10.8333 10.2402L8.54167 11.1777L7.5 13.2402ZM1.66667 15.4902C1.20833 15.4902 0.815834 15.3432 0.489168 15.0492C0.162501 14.7552 -0.000554141 14.4022 1.41483e-06 13.9902V3.49023C1.41483e-06 3.07773 0.163335 2.72448 0.490001 2.43048C0.816668 2.13648 1.20889 1.98973 1.66667 1.99023H2.5V0.490234H4.16667V1.99023H10.8333V0.490234H12.5V1.99023H13.3333C13.7917 1.99023 14.1842 2.13723 14.5108 2.43123C14.8375 2.72523 15.0006 3.07823 15 3.49023V13.9902C15 14.4027 14.8367 14.756 14.51 15.05C14.1833 15.344 13.7911 15.4907 13.3333 15.4902H1.66667ZM1.66667 13.9902H13.3333V6.49023H1.66667V13.9902Z" fill="white" fill-opacity="0.83"/>
</svg>
