<svg width="18" height="12" viewBox="0 0 18 12" fill="none" xmlns="http://www.w3.org/2000/svg">
<path d="M9 0C9.69619 0 10.3639 0.305172 10.8562 0.848381C11.3484 1.39159 11.625 2.12834 11.625 2.89655C11.625 3.66477 11.3484 4.40151 10.8562 4.94472C10.3639 5.48793 9.69619 5.7931 9 5.7931C8.30381 5.7931 7.63613 5.48793 7.14384 4.94472C6.65156 4.40151 6.375 3.66477 6.375 2.89655C6.375 2.12834 6.65156 1.39159 7.14384 0.848381C7.63613 0.305172 8.30381 0 9 0ZM3.75 2.06897C4.17 2.06897 4.56 2.1931 4.8975 2.41655C4.785 3.6 5.1 4.77517 5.745 5.69379C5.37 6.48828 4.62 7.03448 3.75 7.03448C3.15326 7.03448 2.58097 6.77291 2.15901 6.3073C1.73705 5.84169 1.5 5.21019 1.5 4.55172C1.5 3.89326 1.73705 3.26176 2.15901 2.79615C2.58097 2.33054 3.15326 2.06897 3.75 2.06897ZM14.25 2.06897C14.8467 2.06897 15.419 2.33054 15.841 2.79615C16.2629 3.26176 16.5 3.89326 16.5 4.55172C16.5 5.21019 16.2629 5.84169 15.841 6.3073C15.419 6.77291 14.8467 7.03448 14.25 7.03448C13.38 7.03448 12.63 6.48828 12.255 5.69379C12.9089 4.76228 13.2124 3.58858 13.1025 2.41655C13.44 2.1931 13.83 2.06897 14.25 2.06897ZM4.125 10.5517C4.125 8.83862 6.3075 7.44828 9 7.44828C11.6925 7.44828 13.875 8.83862 13.875 10.5517V12H4.125V10.5517ZM0 12V10.7586C0 9.60828 1.4175 8.64 3.3375 8.35862C2.895 8.92138 2.625 9.69931 2.625 10.5517V12H0ZM18 12H15.375V10.5517C15.375 9.69931 15.105 8.92138 14.6625 8.35862C16.5825 8.64 18 9.60828 18 10.7586V12Z" fill="white" fill-opacity="0.83"/>
</svg>
