<svg width="15" height="16" viewBox="0 0 15 16" fill="none" xmlns="http://www.w3.org/2000/svg">
<path d="M4.1688 11.7194C4.10155 11.8083 4.02164 11.8789 3.93365 11.9271C3.84566 11.9752 3.75132 12 3.65605 12C3.56077 12 3.46644 11.9752 3.37845 11.9271C3.29045 11.8789 3.21054 11.8083 3.14329 11.7194L1.21291 9.17541C1.14543 9.08678 1.09188 8.98146 1.05534 8.8655C1.01881 8.74954 1 8.62522 1 8.49966C1 8.3741 1.01881 8.24977 1.05534 8.13381C1.09188 8.01785 1.14543 7.91253 1.21291 7.82391L3.14329 5.2799C3.27928 5.10068 3.46373 5 3.65605 5C3.84837 5 4.03281 5.10068 4.1688 5.2799C4.3048 5.45912 4.38119 5.7022 4.38119 5.95565C4.38119 6.20911 4.3048 6.45218 4.1688 6.6314L3.47568 7.54645L12.5243 7.54645L11.8312 6.63141C11.7639 6.54266 11.7104 6.43731 11.674 6.32137C11.6376 6.20542 11.6188 6.08115 11.6188 5.95565C11.6188 5.7022 11.6952 5.45912 11.8312 5.2799C11.8985 5.19116 11.9785 5.12077 12.0665 5.07274C12.1544 5.02472 12.2487 5 12.344 5C12.5363 5 12.7207 5.10068 12.8567 5.2799L14.7871 7.82391C14.8546 7.91254 14.9081 8.01785 14.9447 8.13381C14.9812 8.24977 15 8.3741 15 8.49966C15 8.62522 14.9812 8.74954 14.9447 8.8655C14.9081 8.98146 14.8546 9.08678 14.7871 9.17541L12.8567 11.7194C12.7207 11.8986 12.5363 11.9993 12.344 11.9993C12.1516 11.9993 11.9672 11.8986 11.8312 11.7194C11.6952 11.5402 11.6188 11.2971 11.6188 11.0437C11.6188 10.7902 11.6952 10.5471 11.8312 10.3679L12.5243 9.45445L3.47568 9.45445L4.17061 10.3695C4.2378 10.4583 4.29105 10.5636 4.32733 10.6795C4.3636 10.7954 4.38218 10.9196 4.38202 11.0449C4.38185 11.1703 4.36293 11.2944 4.32635 11.4101C4.28976 11.5259 4.23623 11.631 4.1688 11.7194Z" fill="#DDDDDD"/>
</svg>
